name C:\Users\u0101727\Documents\MyRepositories\upper-imu-dc\OpenSim\subject0\MA\ResultsMA\grid_4nodes_9dim\angles_20.mot
datacolumns 10
datarows 33
range 2050.01000000 2050.33000000
endheader 
time	clav_prot	clav_elev	scapula_abduction	scapula_elevation	scapula_upward_rot	scapula_winging	plane_elv	shoulder_elv	axial_rot	
       2050.01000000	        -50.00000000	         10.00000000	        -40.00000000	         10.00000000	          0.00000000	        -20.00000000	         30.00000000	        -10.00000000	         90.00000000	
       2050.02000000	        -38.33333333	         10.00000000	        -40.00000000	         10.00000000	          0.00000000	        -20.00000000	         30.00000000	        -10.00000000	         90.00000000	
       2050.03000000	        -26.66666667	         10.00000000	        -40.00000000	         10.00000000	          0.00000000	        -20.00000000	         30.00000000	        -10.00000000	         90.00000000	
       2050.04000000	        -15.00000000	         10.00000000	        -40.00000000	         10.00000000	          0.00000000	        -20.00000000	         30.00000000	        -10.00000000	         90.00000000	
       2050.05000000	        -50.00000000	         20.00000000	        -40.00000000	         10.00000000	          0.00000000	        -20.00000000	         30.00000000	        -10.00000000	         90.00000000	
       2050.06000000	        -38.33333333	         20.00000000	        -40.00000000	         10.00000000	          0.00000000	        -20.00000000	         30.00000000	        -10.00000000	         90.00000000	
       2050.07000000	        -26.66666667	         20.00000000	        -40.00000000	         10.00000000	          0.00000000	        -20.00000000	         30.00000000	        -10.00000000	         90.00000000	
       2050.08000000	        -15.00000000	         20.00000000	        -40.00000000	         10.00000000	          0.00000000	        -20.00000000	         30.00000000	        -10.00000000	         90.00000000	
       2050.09000000	        -50.00000000	        -10.00000000	        -21.66666667	         10.00000000	          0.00000000	        -20.00000000	         30.00000000	        -10.00000000	         90.00000000	
       2050.10000000	        -38.33333333	        -10.00000000	        -21.66666667	         10.00000000	          0.00000000	        -20.00000000	         30.00000000	        -10.00000000	         90.00000000	
       2050.11000000	        -26.66666667	        -10.00000000	        -21.66666667	         10.00000000	          0.00000000	        -20.00000000	         30.00000000	        -10.00000000	         90.00000000	
       2050.12000000	        -15.00000000	        -10.00000000	        -21.66666667	         10.00000000	          0.00000000	        -20.00000000	         30.00000000	        -10.00000000	         90.00000000	
       2050.13000000	        -50.00000000	          0.00000000	        -21.66666667	         10.00000000	          0.00000000	        -20.00000000	         30.00000000	        -10.00000000	         90.00000000	
       2050.14000000	        -38.33333333	          0.00000000	        -21.66666667	         10.00000000	          0.00000000	        -20.00000000	         30.00000000	        -10.00000000	         90.00000000	
       2050.15000000	        -26.66666667	          0.00000000	        -21.66666667	         10.00000000	          0.00000000	        -20.00000000	         30.00000000	        -10.00000000	         90.00000000	
       2050.16000000	        -15.00000000	          0.00000000	        -21.66666667	         10.00000000	          0.00000000	        -20.00000000	         30.00000000	        -10.00000000	         90.00000000	
       2050.17000000	        -50.00000000	         10.00000000	        -21.66666667	         10.00000000	          0.00000000	        -20.00000000	         30.00000000	        -10.00000000	         90.00000000	
       2050.18000000	        -38.33333333	         10.00000000	        -21.66666667	         10.00000000	          0.00000000	        -20.00000000	         30.00000000	        -10.00000000	         90.00000000	
       2050.19000000	        -26.66666667	         10.00000000	        -21.66666667	         10.00000000	          0.00000000	        -20.00000000	         30.00000000	        -10.00000000	         90.00000000	
       2050.20000000	        -15.00000000	         10.00000000	        -21.66666667	         10.00000000	          0.00000000	        -20.00000000	         30.00000000	        -10.00000000	         90.00000000	
       2050.21000000	        -50.00000000	         20.00000000	        -21.66666667	         10.00000000	          0.00000000	        -20.00000000	         30.00000000	        -10.00000000	         90.00000000	
       2050.22000000	        -38.33333333	         20.00000000	        -21.66666667	         10.00000000	          0.00000000	        -20.00000000	         30.00000000	        -10.00000000	         90.00000000	
       2050.23000000	        -26.66666667	         20.00000000	        -21.66666667	         10.00000000	          0.00000000	        -20.00000000	         30.00000000	        -10.00000000	         90.00000000	
       2050.24000000	        -15.00000000	         20.00000000	        -21.66666667	         10.00000000	          0.00000000	        -20.00000000	         30.00000000	        -10.00000000	         90.00000000	
       2050.25000000	        -50.00000000	        -10.00000000	         -3.33333333	         10.00000000	          0.00000000	        -20.00000000	         30.00000000	        -10.00000000	         90.00000000	
       2050.26000000	        -38.33333333	        -10.00000000	         -3.33333333	         10.00000000	          0.00000000	        -20.00000000	         30.00000000	        -10.00000000	         90.00000000	
       2050.27000000	        -26.66666667	        -10.00000000	         -3.33333333	         10.00000000	          0.00000000	        -20.00000000	         30.00000000	        -10.00000000	         90.00000000	
       2050.28000000	        -15.00000000	        -10.00000000	         -3.33333333	         10.00000000	          0.00000000	        -20.00000000	         30.00000000	        -10.00000000	         90.00000000	
       2050.29000000	        -50.00000000	          0.00000000	         -3.33333333	         10.00000000	          0.00000000	        -20.00000000	         30.00000000	        -10.00000000	         90.00000000	
       2050.30000000	        -38.33333333	          0.00000000	         -3.33333333	         10.00000000	          0.00000000	        -20.00000000	         30.00000000	        -10.00000000	         90.00000000	
       2050.31000000	        -26.66666667	          0.00000000	         -3.33333333	         10.00000000	          0.00000000	        -20.00000000	         30.00000000	        -10.00000000	         90.00000000	
       2050.32000000	        -15.00000000	          0.00000000	         -3.33333333	         10.00000000	          0.00000000	        -20.00000000	         30.00000000	        -10.00000000	         90.00000000	
       2050.33000000	        -50.00000000	         10.00000000	         -3.33333333	         10.00000000	          0.00000000	        -20.00000000	         30.00000000	        -10.00000000	         90.00000000	
